<?xml version="1.0" encoding="utf-8"?>
<!-- Generator: Adobe Illustrator 13.0.0, SVG Export Plug-In . SVG Version: 6.00 Build 14948)  -->
<!DOCTYPE svg PUBLIC "-//W3C//DTD SVG 1.1//EN" "http://www.w3.org/Graphics/SVG/1.1/DTD/svg11.dtd">
<svg version="1.1" id="Layer_1" xmlns="http://www.w3.org/2000/svg" xmlns:xlink="http://www.w3.org/1999/xlink" x="0px" y="0px"
	 width="718px" height="250px" viewBox="-187.1 -71.4 718 250" style="enable-background:new -187.1 -71.4 718 250;"
	 xml:space="preserve">
<g>
	<path d="M275,85.1c7.5,8.9,18.8,14.6,31.3,14.6c10.2,0,19.6-3.7,26.8-9.9l0,0L311.4,85c0,0-4.6-0.5-6.5-2.3
		c-2.8-2.5-4.3-6.7-4.7-11.5l-9.8-2.1c0,0-2.3-0.3-3.2-1.1c-5-4.4-1.7-19.9,4.6-21.8c0.8-0.2,3.4,0.3,3.4,0.3l9.3,2.3
		c2.4-4.9,5.7-8.6,9.6-9.8c1.6-0.5,6.9,0.6,6.9,0.6l23.9,4.6C339,28.7,324,17.7,306.4,17.7c-11.3,0-21.5,4.6-28.9,11.9v-0.1H116.6
		l0.1,0.3h-0.1C109.9,16.2,98.1,5.5,83.8,0L84,0.2v18.5c0,0,0.4,4.4-0.8,6.6c-6.4,11.2-37.1,11.2-43.2,0c-0.8-1.4-0.8-6.6-0.8-6.6
		l0.2-18.5C16.2,9,0,31.3,0,57.5C0,78.4,10.4,96.9,26.3,108v0.3V74.1c0,0-0.2-6.6,1.3-10.4C37.7,46,86.1,46,95.8,63.7
		c1.2,2.3,1.3,10.4,1.3,10.4v34c8.3-5.9,15.2-13.9,19.7-23.2h0.1l-0.2,0.5l0.4-0.4h158L275,85.1z"/>
</g>
</svg>
