<?xml version="1.0" encoding="utf-8"?>
<!-- Generator: Adobe Illustrator 13.0.0, SVG Export Plug-In . SVG Version: 6.00 Build 14948)  -->
<!DOCTYPE svg PUBLIC "-//W3C//DTD SVG 1.1//EN" "http://www.w3.org/Graphics/SVG/1.1/DTD/svg11.dtd">
<svg version="1.1" id="Layer_1" xmlns="http://www.w3.org/2000/svg" xmlns:xlink="http://www.w3.org/1999/xlink" x="0px" y="0px"
	 width="400px" height="400px" viewBox="-27.1 -115.4 400 400" style="enable-background:new -27.1 -115.4 400 400;"
	 xml:space="preserve">
<g>
	<path d="M275.4,115.6c7.5,8.9,18.8,14.6,31.3,14.6c10.2,0,19.6-3.7,26.8-9.9l0,0l-21.7-4.8c0,0-4.6-0.5-6.5-2.3
		c-2.8-2.5-4.3-6.7-4.7-11.5l-9.8-2.1c0,0-2.3-0.3-3.2-1.1c-5-4.4-1.7-19.9,4.6-21.8c0.8-0.2,3.4,0.3,3.4,0.3l9.3,2.3
		c2.4-4.9,5.7-8.6,9.6-9.8c1.6-0.5,6.9,0.6,6.9,0.6l23.9,4.6c-5.9-15.5-20.9-26.5-38.5-26.5c-11.3,0-21.5,4.6-28.9,11.9V60H117
		l0.1,0.3H117C110.3,46.7,98.5,36,84.2,30.5l0.2,0.2v18.5c0,0,0.4,4.4-0.8,6.6C77.2,67,46.5,67,40.4,55.8c-0.8-1.4-0.8-6.6-0.8-6.6
		l0.2-18.5C16.6,39.5,0.4,61.8,0.4,88c0,20.9,10.4,39.4,26.3,50.5v0.3v-34.2c0,0-0.2-6.6,1.3-10.4c10.1-17.7,58.5-17.7,68.2,0
		c1.2,2.3,1.3,10.4,1.3,10.4v34c8.3-5.9,15.2-13.9,19.7-23.2h0.1l-0.2,0.5l0.4-0.4h158L275.4,115.6z"/>
</g>
</svg>
